<svg xmlns="http://www.w3.org/2000/svg" width="326" height="184" viewBox="0 0 326 184" preserveAspectRatio="none" fill="none"><defs>
  <linearGradient id="cover" x2="0" y2="1"><stop stop-color="#453b46"/><stop offset="1" stop-color="#36323d"/></linearGradient>
  <linearGradient id="paper" x2="0.7" y2="1"><stop stop-color="#fff8ed"/><stop offset="1" stop-color="#f4e9d9"/></linearGradient>
  <linearGradient id="gutter"><stop stop-color="#b8a597" stop-opacity="0"/><stop offset=".5" stop-color="#a59485" stop-opacity=".4"/><stop offset="1" stop-color="#b8a597" stop-opacity="0"/></linearGradient>
</defs>
 <rect x="14" y="8" width="308" height="174" rx="10" fill="#28232e"/>
 <path d="M21 9H317V172Q317 178 311 178H21Z" fill="#d4c5ae" stroke="#796c62"/>
 <rect x="12" y="2" width="309" height="173" rx="9" fill="url(#cover)" stroke="#241f2b" stroke-width="2"/>
 <rect x="16" y="5" width="301" height="166" rx="6" stroke="#c3ae89" stroke-width="1.1"/>
 <path d="M23 9H311M20 11V165" stroke="#d5c1a1" stroke-opacity=".18"/>
 <circle cx="21" cy="24" r="3.1" fill="#241f2b" stroke="#8b7662" stroke-width=".65"/><path d="M21 22H7C0 22 0 27 7 27H18" stroke="#29232a" stroke-width="3.6" stroke-linecap="round"/><path d="M21 22H7C0 22 0 27 7 27H18" stroke="#c3ae89" stroke-width="1.7" stroke-linecap="round"/><circle cx="21" cy="47" r="3.1" fill="#241f2b" stroke="#8b7662" stroke-width=".65"/><path d="M21 45H7C0 45 0 50 7 50H18" stroke="#29232a" stroke-width="3.6" stroke-linecap="round"/><path d="M21 45H7C0 45 0 50 7 50H18" stroke="#c3ae89" stroke-width="1.7" stroke-linecap="round"/><circle cx="21" cy="70" r="3.1" fill="#241f2b" stroke="#8b7662" stroke-width=".65"/><path d="M21 68H7C0 68 0 73 7 73H18" stroke="#29232a" stroke-width="3.6" stroke-linecap="round"/><path d="M21 68H7C0 68 0 73 7 73H18" stroke="#c3ae89" stroke-width="1.7" stroke-linecap="round"/><circle cx="21" cy="93" r="3.1" fill="#241f2b" stroke="#8b7662" stroke-width=".65"/><path d="M21 91H7C0 91 0 96 7 96H18" stroke="#29232a" stroke-width="3.6" stroke-linecap="round"/><path d="M21 91H7C0 91 0 96 7 96H18" stroke="#c3ae89" stroke-width="1.7" stroke-linecap="round"/><circle cx="21" cy="116" r="3.1" fill="#241f2b" stroke="#8b7662" stroke-width=".65"/><path d="M21 114H7C0 114 0 119 7 119H18" stroke="#29232a" stroke-width="3.6" stroke-linecap="round"/><path d="M21 114H7C0 114 0 119 7 119H18" stroke="#c3ae89" stroke-width="1.7" stroke-linecap="round"/><circle cx="21" cy="139" r="3.1" fill="#241f2b" stroke="#8b7662" stroke-width=".65"/><path d="M21 137H7C0 137 0 142 7 142H18" stroke="#29232a" stroke-width="3.6" stroke-linecap="round"/><path d="M21 137H7C0 137 0 142 7 142H18" stroke="#c3ae89" stroke-width="1.7" stroke-linecap="round"/><circle cx="21" cy="162" r="3.1" fill="#241f2b" stroke="#8b7662" stroke-width=".65"/><path d="M21 160H7C0 160 0 165 7 165H18" stroke="#29232a" stroke-width="3.6" stroke-linecap="round"/><path d="M21 160H7C0 160 0 165 7 165H18" stroke="#c3ae89" stroke-width="1.7" stroke-linecap="round"/></svg>
