<svg xmlns="http://www.w3.org/2000/svg" width="1100" height="410" viewBox="0 0 1100 410" preserveAspectRatio="none" fill="none"><defs>
  <linearGradient id="cover" x2="0" y2="1"><stop stop-color="#453b46"/><stop offset="1" stop-color="#36323d"/></linearGradient>
  <linearGradient id="paper" x2="0.7" y2="1"><stop stop-color="#fff8ed"/><stop offset="1" stop-color="#f4e9d9"/></linearGradient>
  <linearGradient id="gutter"><stop stop-color="#b8a597" stop-opacity="0"/><stop offset=".5" stop-color="#a59485" stop-opacity=".4"/><stop offset="1" stop-color="#b8a597" stop-opacity="0"/></linearGradient>
</defs>
 <path d="M8 25Q253-3 550 18Q846-3 1092 25L1090 394Q825 378 550 403Q275 378 10 394Z" fill="#39333e" stroke="#241f2b" stroke-width="2"/>
 <path d="M18 18Q258-5 550 17Q842-5 1082 18V385Q820 369 550 396Q280 369 18 385Z" fill="#dfcfb6" stroke="#b3a087" stroke-width="1.5"/>
 <path d="M25 13Q260-6 550 19Q840-6 1075 13V378Q820 359 550 389Q280 359 25 378Z" fill="#eee2cc" stroke="#c7b59c"/>
 <path d="M33 7Q287-10 550 21Q813-10 1067 7V368Q823 346 550 382Q277 346 33 368Z" fill="url(#paper)" stroke="#b8a590" stroke-width=".9"/>
 <path d="M34 10Q275-5 536 24M565 24Q825-5 1065 10" stroke="#fffdf7" stroke-width="1.3"/>
 <path d="M520 21H579V378L550 382L520 378Z" fill="url(#gutter)"/>
 <path d="M550 24V377" stroke="#9f8c79" stroke-opacity=".35" stroke-width=".75"/>
 <path d="M556 381L571 379L574 407L565 401L559 408Z" fill="#99647a" stroke="#694856" stroke-width=".7"/>
 <g transform="translate(998 313) scale(0.59375)" fill="none" stroke="#bea68a" stroke-width="1.8" stroke-linecap="round" stroke-linejoin="round"><path d="M32 14c5-4 10 0 10 5 7-1 10 5 6 10 6 5 3 12-4 13-1 7-9 9-13 4-6 4-12 0-12-6-7-2-8-10-2-14-3-6 2-12 8-10 1-4 5-5 7-2Z"/><path d="M32 22c8-2 14 6 10 12-2 6-10 9-15 4-6-2-7-11-1-14 5-3 12 1 10 6-1 5-7 5-9 1m4 10-1 10m-1-4c-5 0-8-3-8-6 5 0 8 2 8 6m2-1c5-1 8-4 8-7-5 1-7 3-8 7"/></g></svg>
