<svg xmlns="http://www.w3.org/2000/svg" viewBox="0 0 128 128"><defs><linearGradient id="glass" x2="1" y2="1"><stop stop-color="#fffaf2" stop-opacity=".92"/><stop offset=".5" stop-color="#ede1c8" stop-opacity=".65"/><stop offset="1" stop-color="#b6a078"/></linearGradient><linearGradient id="gold" x2=".8" y2="1"><stop stop-color="#efdca1"/><stop offset="1" stop-color="#927443"/></linearGradient></defs><ellipse cx="65" cy="114" rx="34" ry="5" fill="#4a3528" opacity=".14"/><path d="M50 27h28v20l23 47q8 18-10 18H37q-18 0-10-18l23-47Z" fill="url(#glass)" stroke="#776043" stroke-width="2.3"/><clipPath id="b"><path d="M50 27h28v20l23 47q8 18-10 18H37q-18 0-10-18l23-47Z"/></clipPath><path d="M15 75q22-12 50 0t52 0v45H15Z" fill="#b77745" opacity=".85" clip-path="url(#b)"/><g fill="url(#gold)" stroke="#705738" stroke-width="1.5"><rect x="47" y="17" width="34" height="16" rx="4"/></g><path d="M47 57v38" stroke="white" stroke-opacity=".7" stroke-width="4" stroke-linecap="round"/><path d="M44 59h40v46H44Z" fill="#f5ead4" opacity=".9"/><g fill="#b77745" stroke="#b77745" stroke-width="1"><path d="M44 91q19-28 40-20-9 26-40 20Zm9 3 22-15"/></g><path d="M43 56h42M43 107h42" stroke="#aa8956" stroke-width="2"/></svg>