<svg xmlns="http://www.w3.org/2000/svg" viewBox="0 0 128 128"><defs><linearGradient id="glass" x2="1" y2="1"><stop stop-color="#fffaf2" stop-opacity=".92"/><stop offset=".5" stop-color="#ede1c8" stop-opacity=".65"/><stop offset="1" stop-color="#b6a078"/></linearGradient><linearGradient id="gold" x2=".8" y2="1"><stop stop-color="#efdca1"/><stop offset="1" stop-color="#927443"/></linearGradient></defs><ellipse cx="65" cy="114" rx="34" ry="5" fill="#4a3528" opacity=".14"/><path d="M35 51h58v49q0 12-12 12H47q-12 0-12-12Z" fill="url(#glass)" stroke="#776043" stroke-width="2.3"/><clipPath id="b"><path d="M35 51h58v49q0 12-12 12H47q-12 0-12-12Z"/></clipPath><path d="M15 75q22-12 50 0t52 0v45H15Z" fill="#8b9d82" opacity=".85" clip-path="url(#b)"/><g fill="url(#gold)" stroke="#705738" stroke-width="1.5"><rect x="32" y="40" width="64" height="16" rx="5"/></g><path d="M47 57v38" stroke="white" stroke-opacity=".7" stroke-width="4" stroke-linecap="round"/><path d="M44 59h40v46H44Z" fill="#f5ead4" opacity=".9"/><g fill="#8b9d82" stroke="#8b9d82" stroke-width="1"><path d="M57 72h14v9h9v13h-9v9H57v-9h-9V81h9Z"/></g><path d="M43 56h42M43 107h42" stroke="#aa8956" stroke-width="2"/></svg>